<?xml version="1.0" standalone="no"?>
<!DOCTYPE svg PUBLIC "-//W3C//DTD SVG 20010904//EN"
 "http://www.w3.org/TR/2001/REC-SVG-20010904/DTD/svg10.dtd">
<svg version="1.0" xmlns="http://www.w3.org/2000/svg"
 width="300.000000pt" height="297.000000pt" viewBox="0 0 300.000000 297.000000"
 preserveAspectRatio="xMidYMid meet">
<metadata>
Created by potrace 1.10, written by Peter Selinger 2001-2011
</metadata>
<g transform="translate(0.000000,297.000000) scale(0.100000,-0.100000)"
fill="#000000" stroke="none">
<path d="M0 1485 c0 -983 3 -1485 10 -1485 7 0 10 502 10 1485 0 983 -3 1485
-10 1485 -7 0 -10 -502 -10 -1485z"/>
<path d="M762 2963 c406 -2 1070 -2 1475 0 406 1 74 2 -737 2 -811 0 -1143 -1
-738 -2z"/>
<path d="M2980 1485 c0 -983 3 -1485 10 -1485 7 0 10 502 10 1485 0 983 -3
1485 -10 1485 -7 0 -10 -502 -10 -1485z"/>
<path d="M1430 2774 c-144 -32 -278 -130 -333 -244 -32 -66 -60 -236 -55 -327
4 -66 1 -71 -33 -50 -18 10 -23 9 -40 -12 -61 -75 32 -335 126 -353 16 -3 21
-17 32 -83 7 -44 16 -109 19 -146 6 -65 6 -65 -30 -103 -20 -22 -36 -47 -36
-56 0 -23 158 -227 308 -395 46 -52 162 -210 162 -222 0 -3 20 -40 44 -82 114
-200 213 -384 262 -487 30 -63 57 -114 60 -114 12 0 144 49 173 64 46 24 46
59 0 165 -21 50 -57 146 -80 214 -45 135 -87 369 -49 275 6 -15 9 -18 9 -7 1
9 -16 47 -36 85 -60 110 -148 315 -183 428 -9 26 -9 40 -2 45 17 10 113 144
127 176 32 75 46 115 59 175 41 187 50 226 58 237 11 14 9 126 -3 175 -12 48
-30 57 -104 51 -33 -3 -86 -6 -117 -6 -32 -1 -58 -5 -58 -9 0 -5 0 -11 0 -15
-1 -11 29 -15 115 -17 44 -1 88 -6 98 -10 10 -5 29 -27 42 -51 23 -38 24 -46
15 -91 -6 -27 -16 -71 -21 -98 -6 -28 -17 -59 -25 -70 -8 -11 -14 -32 -14 -47
0 -33 -24 -81 -35 -71 -5 4 -5 1 0 -7 4 -7 4 -16 -1 -20 -20 -14 -47 -77 -48
-110 -1 -21 -10 -48 -22 -64 -22 -27 -44 -36 -44 -17 0 6 4 10 9 10 5 0 8 31
8 69 -2 53 1 67 11 63 10 -3 13 6 10 39 -2 32 -8 45 -20 47 -11 2 -18 -3 -18
-12 0 -17 -9 -20 -34 -10 -9 3 -13 10 -10 15 3 5 -1 9 -9 9 -21 0 -28 47 -8
55 13 5 13 7 1 15 -18 11 -35 -3 -35 -28 0 -11 -8 -17 -22 -16 -16 0 -23 -5
-23 -18 0 -24 -50 -45 -62 -26 -13 22 -9 30 12 23 12 -4 20 -2 20 5 0 6 -4 8
-10 5 -6 -4 -9 4 -7 17 2 21 -2 23 -41 22 -23 0 -48 -7 -55 -14 -8 -9 -9 -11
0 -6 15 8 45 -22 36 -37 -5 -8 -8 -7 -11 1 -3 10 -7 10 -18 1 -8 -6 -14 -16
-14 -22 0 -6 3 -7 6 -4 4 3 15 2 25 -4 13 -6 19 -6 19 1 0 16 30 12 36 -5 4
-10 14 -14 28 -10 15 5 17 4 7 -3 -27 -19 6 -20 35 -1 16 10 23 19 17 19 -7 0
-13 7 -13 15 0 8 6 15 13 15 13 0 47 -20 35 -20 -5 0 0 -8 10 -18 9 -10 25
-16 35 -14 9 2 17 0 17 -6 0 -13 -48 -31 -85 -32 -16 0 -39 -1 -50 -1 -42 -2
-154 11 -180 21 -32 12 -35 12 -35 2 0 -5 12 -15 28 -22 36 -17 268 -26 286
-11 16 14 43 5 56 -19 10 -18 -17 -90 -33 -90 -5 0 -4 -7 3 -15 10 -12 10 -15
-3 -15 -20 0 -33 -20 -19 -29 6 -4 9 -15 7 -26 -2 -11 -4 -23 -4 -27 -1 -5 -6
-8 -12 -8 -6 0 -8 8 -4 19 6 21 -15 34 -40 25 -14 -6 -13 -8 2 -20 13 -9 14
-13 4 -14 -8 0 -11 -7 -8 -20 6 -24 -5 -32 -49 -36 -25 -2 -34 1 -34 11 0 8 6
15 14 15 19 0 28 27 12 33 -14 5 -36 -31 -36 -58 0 -17 -35 -20 -45 -5 -4 6
-15 6 -32 -1 -21 -8 -29 -7 -35 6 -5 8 -18 15 -28 15 -11 0 -20 5 -20 10 0 6
-6 10 -13 10 -8 0 -27 11 -43 25 -16 14 -34 25 -40 25 -15 0 -72 58 -79 81 -4
10 -11 19 -17 19 -5 0 -8 7 -5 15 4 8 2 17 -4 21 -6 3 -8 12 -5 20 7 17 -13
64 -28 64 -5 0 -2 6 8 13 17 12 17 14 2 20 -17 7 -22 52 -6 62 16 10 12 21
-15 35 -14 7 -25 22 -25 32 0 11 -4 27 -10 37 -25 47 -50 174 -44 221 4 27 3
57 -1 67 -12 29 -5 217 11 280 8 32 17 71 19 87 7 40 40 87 81 114 19 12 34
30 34 39 0 9 3 13 6 10 4 -3 15 4 25 17 11 14 34 26 58 30 22 3 44 13 49 22 5
9 24 17 43 20 19 2 64 8 102 13 73 10 93 6 187 -38 30 -14 58 -25 62 -23 4 1
17 -11 28 -26 12 -15 25 -26 28 -25 24 9 112 -80 112 -113 0 -7 10 -29 22 -50
19 -33 21 -49 19 -168 -2 -145 10 -161 30 -36 14 95 7 146 -34 224 -42 81 -71
115 -149 173 -133 101 -246 129 -388 97z m-372 -656 c21 -21 14 -75 -13 -103
-40 -40 -55 -33 -55 24 0 28 5 53 10 56 6 4 8 10 5 15 -4 7 6 13 36 19 3 0 10
-4 17 -11z m16 -172 c6 -33 5 -38 -8 -33 -20 8 -20 -3 -1 -29 18 -24 19 -44 1
-44 -19 0 -56 61 -56 93 0 19 8 31 28 41 15 8 28 14 28 13 1 -1 5 -19 8 -41z
m181 -513 c27 -29 56 -53 63 -53 6 0 21 -9 31 -19 11 -11 44 -31 73 -45 46
-21 66 -24 144 -22 83 2 95 4 128 29 20 16 36 23 36 16 0 -19 -39 -146 -61
-196 -18 -43 -21 -45 -51 -39 -17 3 -70 34 -117 69 -96 70 -109 80 -197 137
-80 52 -144 121 -144 155 0 15 4 24 9 21 4 -3 6 7 4 22 l-4 27 18 -25 c10 -14
40 -49 68 -77z m-68 -55 c28 -33 71 -68 123 -103 25 -16 53 -40 63 -52 10 -13
25 -23 33 -23 8 0 14 -4 14 -9 0 -4 20 -21 45 -37 25 -15 45 -31 45 -35 0 -4
11 -10 25 -13 14 -4 25 -10 25 -15 0 -5 10 -7 23 -4 18 5 20 3 10 -8 -7 -7
-13 -21 -13 -31 0 -9 -6 -21 -14 -25 -23 -14 -38 -52 -27 -71 9 -14 10 -14 11
-2 0 15 9 30 58 90 12 16 36 31 52 35 32 7 60 38 60 68 0 10 5 15 10 12 6 -4
10 8 10 28 0 66 14 46 52 -75 22 -68 45 -130 52 -138 7 -8 28 -58 46 -110 26
-74 35 -120 40 -205 9 -127 7 -118 20 -110 12 7 32 -37 51 -112 7 -29 15 -50
19 -48 3 2 12 -17 20 -43 7 -26 19 -56 27 -67 23 -34 16 -63 -19 -85 -18 -11
-43 -20 -55 -20 -13 0 -23 -4 -23 -10 0 -5 -9 -10 -19 -10 -14 0 -29 18 -50
60 -17 33 -31 67 -31 74 0 7 -9 21 -20 31 -11 10 -20 24 -20 31 0 7 -6 19 -13
26 -6 7 -23 38 -37 68 -14 30 -27 57 -30 60 -38 34 -95 192 -109 300 -7 57
-25 100 -41 100 -13 0 -13 -13 -1 -25 5 -6 12 -37 16 -70 7 -56 6 -59 -9 -40
-8 11 -16 26 -16 33 0 7 -5 10 -12 6 -6 -4 -8 -3 -5 3 8 12 -47 97 -73 116
-10 7 -20 19 -22 27 -2 8 -16 29 -33 46 -16 17 -49 55 -72 85 -23 30 -55 69
-72 88 -17 18 -43 49 -58 69 -15 19 -40 48 -54 64 -31 35 -54 98 -35 98 7 0
21 -10 33 -22z"/>
<path d="M1716 1064 c-4 -9 0 -24 8 -33 8 -9 18 -28 21 -43 4 -16 11 -28 15
-28 4 0 10 -10 14 -23 6 -25 43 -73 50 -66 4 3 -89 197 -99 207 -1 2 -5 -5 -9
-14z"/>
<path d="M1706 734 c-7 -19 3 -64 14 -64 16 0 22 20 15 50 -7 33 -19 39 -29
14z"/>
<path d="M1234 2184 c-27 -19 -50 -39 -52 -44 -6 -16 52 -11 89 7 45 22 62 23
138 8 36 -8 73 -10 85 -5 12 4 25 8 31 8 5 0 11 4 12 9 4 10 -130 41 -203 48
-45 4 -56 0 -100 -31z"/>
<path d="M1292 2100 c-48 -11 -61 -26 -36 -45 27 -20 44 -18 44 5 0 27 14 25
34 -4 19 -30 47 -27 64 7 11 23 15 25 32 14 11 -6 20 -15 20 -19 0 -5 7 -8 16
-8 14 0 15 2 3 17 -32 37 -102 51 -177 33z"/>
<path d="M1540 2091 c-6 -12 -16 -21 -23 -21 -15 0 -39 -73 -26 -80 5 -4 -3
-26 -19 -51 -61 -98 -66 -129 -24 -157 22 -14 22 -14 22 26 0 22 6 45 15 52 9
8 12 22 8 41 -3 18 -1 29 6 29 6 0 11 10 11 23 1 23 21 57 35 57 4 0 4 -10 1
-22 -14 -46 -15 -58 -5 -63 14 -9 11 -24 -11 -42 -11 -10 -20 -28 -20 -40 0
-20 2 -22 19 -11 10 6 17 18 14 25 -3 8 2 20 12 27 15 10 18 30 19 116 1 105
-10 135 -34 91z"/>
<path d="M1728 2093 c-10 -2 -18 -11 -18 -20 0 -12 8 -14 35 -10 29 5 35 3 35
-13 0 -34 65 -42 75 -9 8 23 28 21 33 -4 2 -10 -3 -17 -12 -17 -9 0 -16 -4
-16 -10 0 -14 16 -12 29 4 6 7 22 11 36 8 25 -4 25 -3 14 22 -7 15 -22 29 -33
31 -30 7 -150 25 -156 24 -3 -1 -13 -3 -22 -6z"/>
<path d="M1730 2041 c0 -6 5 -13 10 -16 6 -4 8 -10 5 -15 -3 -5 3 -14 14 -19
28 -16 39 -13 17 4 -10 8 -15 19 -11 25 4 7 1 16 -6 21 -18 11 -29 11 -29 0z"/>
<path d="M1560 1844 c0 -17 28 -49 36 -41 7 6 -17 57 -28 57 -4 0 -8 -7 -8
-16z"/>
<path d="M1370 1703 c-22 -29 -29 -90 -7 -63 7 8 22 21 35 28 18 10 22 10 22
0 0 -10 2 -10 8 -1 6 10 14 9 35 -2 30 -15 35 -11 13 11 -8 8 -24 14 -36 14
-16 0 -20 5 -16 18 9 28 -30 25 -54 -5z"/>
<path d="M1256 1655 c-19 -30 -20 -39 -3 -54 11 -8 14 -4 14 20 0 17 5 34 12
39 8 5 9 10 3 14 -5 3 -17 -5 -26 -19z"/>
<path d="M1367 1613 c-7 -14 -18 -63 -13 -63 10 0 34 60 26 65 -5 3 -11 2 -13
-2z"/>
<path d="M1476 1548 c3 -5 15 -8 25 -5 12 3 19 0 19 -9 0 -7 12 -17 27 -20 23
-6 24 -8 9 -19 -15 -12 -15 -13 1 -17 10 -3 27 -1 38 3 17 6 17 8 3 8 -10 1
-18 7 -18 15 0 9 8 12 24 9 30 -6 96 14 96 29 0 6 -3 9 -6 6 -3 -4 -19 -2 -35
2 -16 5 -43 5 -61 -1 -18 -5 -34 -5 -37 -1 -9 11 -92 12 -85 0z"/>
<path d="M1330 1509 c0 -16 5 -20 20 -16 11 3 27 -1 34 -9 18 -18 26 -18 26
-1 0 7 -16 21 -35 30 -45 21 -45 21 -45 -4z"/>
<path d="M1500 1402 c-23 -11 -23 -38 0 -38 12 0 20 7 20 17 0 10 6 20 13 22
8 4 7 5 -3 6 -8 0 -22 -3 -30 -7z"/>
<path d="M1036 1376 c-3 -13 -28 -40 -56 -60 -53 -38 -76 -73 -81 -121 -5 -58
13 -130 45 -180 55 -86 85 -140 106 -197 20 -53 20 -55 1 -91 -19 -38 -31 -39
-31 -2 0 12 -9 30 -20 40 -13 12 -17 25 -14 44 6 27 -34 131 -50 131 -4 0 -5
-8 -1 -17 4 -10 12 -36 17 -58 5 -21 14 -46 21 -54 9 -12 9 -13 0 -7 -20 12
-16 -6 26 -95 36 -78 99 -241 116 -299 4 -14 14 -40 22 -58 12 -26 18 -30 29
-21 14 12 20 -3 16 -41 -3 -28 9 -80 18 -80 5 0 4 14 -2 31 -6 16 -8 32 -5 35
3 3 11 -12 17 -33 7 -21 30 -73 51 -115 29 -57 44 -78 59 -78 17 0 16 6 -17
72 -21 40 -41 75 -45 76 -4 2 -5 8 -2 13 3 6 -1 18 -9 27 -8 9 -20 34 -27 55
-6 20 -15 35 -20 32 -4 -3 -6 4 -3 16 5 19 4 20 -15 10 -14 -7 -23 -8 -27 -1
-3 6 5 14 19 20 l25 9 -24 58 c-86 211 -87 212 -73 241 11 23 20 27 61 30 46
4 50 2 95 -46 26 -27 73 -91 106 -141 52 -83 60 -91 75 -78 9 8 22 16 28 18
12 4 -68 149 -117 215 -24 33 -107 92 -139 99 -21 4 -43 25 -78 73 -160 217
-191 296 -157 393 11 28 30 61 45 73 14 12 29 36 32 54 7 37 -8 44 -17 8z m97
-608 c9 2 17 -2 17 -8 0 -5 -4 -10 -10 -10 -5 0 -10 -7 -10 -15 0 -8 -6 -12
-14 -9 -8 3 -12 12 -9 20 3 8 0 14 -6 14 -7 0 -10 11 -7 28 6 40 8 40 15 7 5
-21 12 -29 24 -27z m165 -74 c30 -21 32 -24 12 -19 -24 7 -72 45 -57 45 5 0
25 -12 45 -26z"/>
<path d="M842 1144 c-12 -8 -49 -20 -83 -25 -68 -11 -107 -32 -119 -65 -5 -12
-33 -36 -63 -53 -49 -28 -63 -31 -137 -31 -95 0 -130 -13 -196 -74 l-44 -42
31 -57 c17 -31 34 -57 39 -57 18 0 65 22 72 33 14 22 8 25 -22 14 -26 -10 -32
-9 -44 8 -21 28 -30 73 -17 89 18 21 119 68 132 61 6 -4 15 -2 19 5 5 9 13 9
26 2 11 -6 27 -7 43 -1 29 11 55 4 45 -12 -3 -6 4 -4 17 4 13 9 50 17 82 19
55 3 83 18 33 18 -34 0 -42 18 -14 29 13 6 16 10 8 10 -8 1 -1 10 16 20 18 11
34 25 36 33 4 11 8 11 22 -1 14 -12 19 -12 34 1 9 8 26 18 37 22 27 10 85 49
85 59 0 11 -14 8 -38 -9z"/>
<path d="M2110 1091 c0 -6 4 -11 8 -11 5 0 39 -29 77 -65 72 -69 105 -82 41
-16 -48 49 -126 106 -126 92z"/>
<path d="M1135 910 c16 -16 33 -30 39 -30 5 0 -3 14 -19 30 -16 17 -33 30 -39
30 -5 0 3 -13 19 -30z"/>
<path d="M2290 920 c0 -11 78 -241 84 -248 10 -9 -2 38 -31 128 -22 66 -52
134 -53 120z"/>
<path d="M309 872 c-38 -19 -22 -28 23 -13 41 14 48 14 48 -4 0 -19 9 -19 30
0 13 12 23 13 41 6 13 -5 18 -10 12 -10 -20 -1 -15 -15 9 -30 13 -8 40 -13 61
-13 21 1 51 -5 68 -13 53 -28 30 -1 -37 43 -61 40 -71 43 -144 46 -56 2 -88
-1 -111 -12z"/>
<path d="M139 743 c-35 -75 -45 -125 -35 -179 6 -27 10 -34 19 -25 8 8 8 19 0
41 -9 23 -8 42 2 80 16 61 48 116 65 112 8 -2 10 3 6 13 -3 9 -6 19 -6 21 0 2
-5 4 -10 4 -6 0 -25 -30 -41 -67z"/>
<path d="M2118 786 c-10 -7 -18 -16 -18 -19 0 -8 72 -39 77 -33 4 4 -30 66
-37 66 -3 -1 -13 -7 -22 -14z"/>
<path d="M400 775 c-10 -12 -9 -16 6 -21 11 -3 27 -10 37 -15 13 -7 17 -5 17
11 0 10 -9 24 -19 30 -25 13 -26 13 -41 -5z"/>
<path d="M285 703 c9 -16 29 -43 44 -62 25 -30 30 -32 50 -21 15 8 56 11 116
8 69 -2 89 0 74 7 -10 6 -65 10 -120 10 l-101 -2 -14 33 c-12 29 -39 54 -59
54 -3 0 1 -12 10 -27z"/>
<path d="M830 695 c0 -25 15 -49 27 -44 6 2 2 18 -8 34 -16 25 -19 26 -19 10z"/>
<path d="M2004 685 c15 -64 40 -133 47 -129 8 5 -22 101 -41 131 -10 16 -11
16 -6 -2z"/>
<path d="M386 565 c9 -14 35 -35 57 -45 46 -23 64 -19 20 4 -16 8 -36 22 -43
31 -7 9 -22 21 -32 26 -19 10 -19 10 -2 -16z"/>
<path d="M2237 583 c-4 -3 -7 -38 -7 -77 -1 -39 -5 -90 -9 -114 -8 -38 -5 -47
20 -82 32 -44 44 -48 70 -24 17 16 16 49 -2 38 -14 -8 -10 12 4 25 11 8 18 6
32 -9 14 -15 21 -17 32 -9 27 23 7 113 -35 160 -22 25 -32 29 -53 24 l-27 -7
19 -51 c10 -28 23 -55 29 -61 16 -16 12 -21 -24 -36 -24 -9 -33 -18 -29 -29 4
-9 2 -12 -2 -8 -12 10 -15 67 -4 67 5 0 6 14 3 30 -4 18 -2 30 4 30 7 0 5 10
-4 28 -7 15 -14 35 -14 45 0 14 4 16 18 8 17 -9 18 -7 8 25 -11 34 -17 40 -29
27z m98 -119 c9 -14 18 -39 20 -56 l4 -30 -19 25 c-19 24 -39 87 -27 87 2 0
12 -12 22 -26z"/>
<path d="M76 486 c-31 -41 -33 -50 -7 -36 20 10 55 70 41 70 -4 0 -19 -15 -34
-34z"/>
<path d="M504 471 c11 -12 25 -17 38 -13 18 4 16 7 -12 18 -43 18 -46 18 -26
-5z"/>
<path d="M940 435 c0 -24 82 -193 87 -178 2 6 -10 41 -27 77 -16 37 -30 70
-30 74 0 5 -7 17 -15 28 -14 19 -14 19 -15 -1z"/>
<path d="M1440 423 c0 -3 15 -29 33 -59 20 -34 37 -52 46 -49 11 4 11 3 2 -9
-10 -12 -8 -19 11 -39 12 -12 23 -28 24 -35 2 -28 5 -31 22 -25 15 6 15 5 3
-10 -13 -16 -8 -22 13 -18 5 1 3 -5 -4 -14 -12 -14 -11 -18 1 -26 8 -5 17 -9
21 -9 3 0 4 -9 1 -20 -3 -11 -1 -20 4 -20 6 0 8 -11 6 -24 -4 -19 -1 -23 19
-22 29 2 27 12 -16 114 -18 42 -38 76 -44 75 -6 -2 -9 4 -6 11 9 22 -15 59
-33 52 -13 -5 -13 -4 -4 7 17 21 -46 124 -76 124 -13 0 -23 -2 -23 -4z"/>
<path d="M1136 230 c15 -36 32 -78 40 -95 7 -16 15 -38 18 -48 3 -10 15 -17
28 -17 20 1 21 2 6 11 -10 5 -18 16 -18 22 0 14 -77 166 -91 182 -5 5 3 -20
17 -55z"/>
<path d="M2360 231 c0 -34 -17 -50 -32 -30 -8 11 -8 10 -4 -4 3 -10 6 -39 6
-63 0 -33 4 -44 15 -44 11 0 14 7 9 25 -7 28 -2 30 28 14 19 -10 20 -9 13 17
-4 16 -8 47 -9 68 -1 47 -26 63 -26 17z"/>
<path d="M2260 146 c0 -42 3 -76 8 -76 10 1 42 26 42 34 0 3 -6 5 -12 4 -9 -2
-14 14 -16 52 -2 42 0 51 9 40 9 -13 10 -13 6 0 -2 8 -11 16 -20 18 -15 3 -17
-7 -17 -72z"/>
<path d="M2456 167 c3 -9 1 -24 -6 -32 -10 -12 -9 -15 4 -15 24 0 31 29 12 48
-16 16 -17 16 -10 -1z"/>
<path d="M2077 126 c-10 -8 -47 -22 -82 -32 -36 -10 -65 -22 -65 -27 0 -4 7
-21 15 -38 19 -35 37 -30 29 9 -5 25 -1 28 40 43 42 15 46 15 47 0 0 -9 2 -27
2 -41 3 -43 21 -37 29 10 4 25 10 55 13 68 6 25 -2 27 -28 8z"/>
<path d="M2390 99 c0 -5 -4 -7 -10 -4 -6 4 -10 -12 -9 -42 0 -35 3 -42 8 -28
8 19 9 18 14 -5 2 -14 4 1 4 33 -1 31 -3 57 -4 57 -2 0 -3 -5 -3 -11z"/>
</g>
</svg>
